<svg width="389" height="296" viewBox="0 0 389 296" fill="none" xmlns="http://www.w3.org/2000/svg">
<path d="M165.718 0C119.914 0 80.9275 28.1179 66.3291 67.417C28.2027 78.4302 0 117.708 0 164.474C0.00012207 219.777 39.4401 264.61 88.0918 264.61C100.03 264.61 111.413 261.909 121.795 257.018C147.458 280.367 191.146 295.741 240.727 295.741C319.725 295.741 383.767 256.715 383.767 208.575C383.767 191.097 375.324 174.821 360.79 161.178C378.523 147.425 389 130.446 389 112.07C389 66.2224 323.787 29.0557 243.343 29.0557C242.093 29.0557 240.847 29.0632 239.604 29.0811C220.567 11.0926 194.487 7.64926e-05 165.718 0Z" fill="#D9D9D9"/>
</svg>
