<svg width="387" height="322" viewBox="0 0 387 322" fill="none" xmlns="http://www.w3.org/2000/svg">
<path d="M222.135 0.0957031C267.703 0.0957475 306.488 30.7008 321.012 73.4766C358.942 85.464 387 128.217 387 179.12C387 239.317 347.763 288.116 299.361 288.116C287.484 288.116 276.159 285.176 265.83 279.852C240.299 305.267 196.837 322.001 147.512 322.001C68.9188 322.001 5.20605 279.522 5.20605 227.123C5.20612 208.099 13.6053 190.384 28.0645 175.533C10.4226 160.564 0 142.081 0 122.08C0.000385176 72.1762 64.8779 31.7217 144.908 31.7217C146.152 31.7217 147.391 31.7306 148.627 31.75C167.566 12.1696 193.513 0.0957031 222.135 0.0957031Z" fill="#D9D9D9"/>
</svg>
