<svg width="2059" height="2539" viewBox="0 0 2059 2539" fill="none" xmlns="http://www.w3.org/2000/svg">
<path d="M2021.01 1371.16L2042.51 1405L2053.38 1362.89L2021.01 1371.16Z" fill="#64ADCE"/>
<path d="M2031.01 1375.89C2036.87 1361.02 2013.32 1333.3 1978.42 1313.98C1943.51 1294.66 1910.46 1291.06 1904.61 1305.93C1898.75 1320.8 1922.3 1348.52 1957.2 1367.84C1992.11 1387.16 2025.15 1390.76 2031.01 1375.89Z" fill="#9ED0EB"/>
<path d="M1930.1 1349.32C1937.06 1344.23 1942.76 1336.83 1946.26 1327.52C1949.43 1319.07 1950.39 1310.09 1949.46 1301.38C1926.93 1294.28 1909.04 1295.52 1904.88 1306.09C1900.74 1316.59 1911.27 1333.49 1930.1 1349.32Z" fill="#63AECE"/>
<ellipse cx="2.69429" cy="3.19381" rx="2.69429" ry="3.19381" transform="matrix(1 0 0 -1 1919.93 1328.96)" fill="#5D5252"/>
<path d="M286.784 2189.81L272.195 2160L264.816 2197.1L286.784 2189.81Z" fill="#64ADCE"/>
<path d="M279.997 2185.64C276.021 2198.74 292.005 2223.16 315.699 2240.18C339.393 2257.2 361.824 2260.38 365.8 2247.28C369.777 2234.18 353.792 2209.76 330.099 2192.74C306.405 2175.72 283.974 2172.54 279.997 2185.64Z" fill="#9ED0EB"/>
<path d="M348.495 2209.05C343.773 2213.53 339.903 2220.05 337.529 2228.26C335.377 2235.7 334.72 2243.61 335.357 2251.28C350.649 2257.54 362.789 2256.45 365.615 2247.14C368.422 2237.89 361.277 2223 348.495 2209.05Z" fill="#63AECE"/>
<ellipse cx="1.82885" cy="2.81359" rx="1.82885" ry="2.81359" transform="matrix(-1 0 0 1 355.397 2226.98)" fill="#5D5252"/>
<path d="M33.8415 905.94L14.6937 867L5.00821 915.461L33.8415 905.94Z" fill="#64ADCE"/>
<path d="M24.9342 900.496C19.7154 917.61 40.6947 949.508 71.7928 971.742C102.891 993.976 132.332 998.127 137.55 981.013C142.769 963.899 121.79 932.001 90.6919 909.767C59.5937 887.533 30.153 883.382 24.9342 900.496Z" fill="#9ED0EB"/>
<path d="M114.836 931.072C108.639 936.931 103.559 945.444 100.444 956.165C97.6191 965.883 96.7574 976.221 97.5929 986.242C117.663 994.412 133.599 992.99 137.307 980.83C140.992 968.746 131.614 949.291 114.836 931.072Z" fill="#63AECE"/>
<ellipse cx="2.40036" cy="3.67541" rx="2.40036" ry="3.67541" transform="matrix(-1 0 0 1 123.896 954.503)" fill="#5D5252"/>
<path d="M1216.8 2460.53L1233.24 2431.72L1241.55 2467.58L1216.8 2460.53Z" fill="#64ADCE"/>
<path d="M1224.45 2456.51C1228.93 2469.17 1210.92 2492.77 1184.23 2509.22C1157.54 2525.66 1132.27 2528.74 1127.8 2516.07C1123.32 2503.41 1141.32 2479.81 1168.01 2463.36C1194.7 2446.91 1219.97 2443.84 1224.45 2456.51Z" fill="#9ED0EB"/>
<path d="M1147.29 2479.13C1152.61 2483.46 1156.97 2489.76 1159.64 2497.69C1162.07 2504.88 1162.81 2512.53 1162.09 2519.94C1144.86 2525.99 1131.19 2524.94 1128.01 2515.94C1124.84 2507 1132.89 2492.61 1147.29 2479.13Z" fill="#63AECE"/>
<ellipse cx="1141.57" cy="2499.18" rx="2.0601" ry="2.71921" fill="#5D5252"/>
<path d="M1801.62 580.17L1784.29 556L1775.53 586.079L1801.62 580.17Z" fill="#64ADCE"/>
<path d="M1793.56 576.791C1788.84 587.413 1807.82 607.212 1835.96 621.012C1864.09 634.813 1890.73 637.389 1895.45 626.766C1900.17 616.144 1881.19 596.346 1853.05 582.545C1824.92 568.745 1798.28 566.168 1793.56 576.791Z" fill="#9ED0EB"/>
<path d="M1874.9 595.769C1869.29 599.406 1864.7 604.69 1861.88 611.344C1859.32 617.376 1858.54 623.792 1859.3 630.012C1877.46 635.082 1891.87 634.201 1895.23 626.654C1898.56 619.153 1890.08 607.077 1874.9 595.769Z" fill="#63AECE"/>
<ellipse cx="2.17176" cy="2.28129" rx="2.17176" ry="2.28129" transform="matrix(-1 0 0 1 1883.1 610.312)" fill="#5D5252"/>
<path d="M238.604 54.5867L254.105 28L261.946 61.0873L238.604 54.5867Z" fill="#64ADCE"/>
<path d="M245.815 50.8699C250.04 62.5545 233.057 84.3329 207.882 99.5134C182.707 114.694 158.874 117.528 154.65 105.843C150.425 94.1585 167.408 72.3801 192.583 57.1996C217.757 42.0192 241.59 39.1852 245.815 50.8699Z" fill="#9ED0EB"/>
<path d="M173.038 71.7458C178.055 75.7462 182.166 81.5589 184.688 88.8787C186.974 95.5137 187.672 102.572 186.996 109.414C170.749 114.991 157.849 114.02 154.847 105.719C151.864 97.4679 159.455 84.1852 173.038 71.7458Z" fill="#63AECE"/>
<ellipse cx="167.646" cy="90.2527" rx="1.94315" ry="2.50942" fill="#5D5252"/>
<path d="M458 1415.2L476.106 1387L485.264 1422.09L458 1415.2Z" fill="#64ADCE"/>
<path d="M466.423 1411.26C471.358 1423.65 451.52 1446.75 422.114 1462.85C392.709 1478.95 364.87 1481.95 359.935 1469.56C355 1457.17 374.838 1434.07 404.244 1417.97C433.649 1401.87 461.488 1398.86 466.423 1411.26Z" fill="#9ED0EB"/>
<path d="M381.413 1433.4C387.273 1437.64 392.076 1443.8 395.022 1451.57C397.693 1458.61 398.508 1466.09 397.718 1473.35C378.74 1479.26 363.672 1478.23 360.166 1469.43C356.682 1460.68 365.549 1446.59 381.413 1433.4Z" fill="#63AECE"/>
<ellipse cx="375.116" cy="1453.03" rx="2.26973" ry="2.6615" fill="#5D5252"/>
<path d="M1931.22 2352.19L1945.8 2382L1953.18 2344.9L1931.22 2352.19Z" fill="#64ADCE"/>
<path d="M1938 2356.36C1941.98 2343.26 1925.99 2318.84 1902.3 2301.82C1878.61 2284.8 1856.18 2281.62 1852.2 2294.72C1848.22 2307.82 1864.21 2332.24 1887.9 2349.26C1911.6 2366.28 1934.03 2369.46 1938 2356.36Z" fill="#9ED0EB"/>
<path d="M1869.51 2332.95C1874.23 2328.47 1878.1 2321.95 1880.47 2313.74C1882.62 2306.3 1883.28 2298.39 1882.64 2290.72C1867.35 2284.46 1855.21 2285.55 1852.39 2294.86C1849.58 2304.11 1856.72 2319 1869.51 2332.95Z" fill="#63AECE"/>
<ellipse cx="1.82885" cy="2.81359" rx="1.82885" ry="2.81359" transform="matrix(1 0 0 -1 1862.6 2315.02)" fill="#5D5252"/>
<path d="M1060.22 208.191L1074.8 238L1082.18 200.902L1060.22 208.191Z" fill="#64ADCE"/>
<path d="M1067 212.358C1070.98 199.257 1054.99 174.839 1031.3 157.818C1007.61 140.798 985.176 137.62 981.2 150.721C977.223 163.822 993.208 188.24 1016.9 205.261C1040.6 222.281 1063.03 225.459 1067 212.358Z" fill="#9ED0EB"/>
<path d="M998.505 188.951C1003.23 184.465 1007.1 177.949 1009.47 169.743C1011.62 162.303 1012.28 154.389 1011.64 146.718C996.351 140.464 984.211 141.552 981.385 150.861C978.578 160.111 985.723 175.004 998.505 188.951Z" fill="#63AECE"/>
<ellipse cx="1.82885" cy="2.81359" rx="1.82885" ry="2.81359" transform="matrix(1 0 0 -1 991.603 171.015)" fill="#5D5252"/>
<path d="M1738.4 72.4133L1722.89 99L1715.05 65.9127L1738.4 72.4133Z" fill="#64ADCE"/>
<path d="M1731.18 76.1301C1726.96 64.4455 1743.94 42.6671 1769.12 27.4866C1794.29 12.3062 1818.13 9.47224 1822.35 21.1569C1826.58 32.8415 1809.59 54.6199 1784.42 69.8004C1759.24 84.9808 1735.41 87.8148 1731.18 76.1301Z" fill="#9ED0EB"/>
<path d="M1803.96 55.2542C1798.95 51.2538 1794.83 45.4411 1792.31 38.1213C1790.03 31.4863 1789.33 24.4281 1790 17.5862C1806.25 12.0088 1819.15 12.9795 1822.15 21.2815C1825.14 29.5321 1817.54 42.8148 1803.96 55.2542Z" fill="#63AECE"/>
<ellipse cx="1809.35" cy="36.7473" rx="1.94315" ry="2.50942" transform="rotate(-180 1809.35 36.7473)" fill="#5D5252"/>
</svg>
