<svg width="336" height="137" viewBox="0 0 336 137" fill="none" xmlns="http://www.w3.org/2000/svg">
<path d="M152.967 17.1868C135.546 4.21725 87.942 -13.9402 36.8991 17.1868C14.3868 30.1565 -21.2029 60.7333 16.5362 79.2837C13.1424 85.834 12.4637 100.9 36.8991 108.76C46.9674 119.765 70.3071 146.224 102.616 119.813C122.753 132.783 176.079 150.94 201.6 119.813C201.6 119.813 244.94 130.455 270.733 108.76C277.973 112.035 298.494 114.655 322.658 98.9346C332.726 91.7293 346.822 73.074 322.658 56.0957C331.142 51.5104 343.021 37.3094 322.658 17.1868C312.59 8.01643 281.661 -4.82215 238.491 17.1868C225.595 6.83737 190.435 -7.6519 152.967 17.1868Z" fill="#F1F0E8"/>
</svg>
