<svg width="237" height="85" viewBox="0 0 237 85" fill="none" xmlns="http://www.w3.org/2000/svg">
<path d="M119.12 0C163.664 0 199.774 9.24729 199.774 20.6543C199.774 21.1101 199.716 21.5623 199.603 22.0107C221.979 25.737 237 32.6274 237 40.5137C237 47.3295 225.781 53.4013 208.29 57.3301C211.594 59.7277 213.424 62.3673 213.424 65.1406C213.423 76.1087 184.813 85 149.521 85C122.717 85 99.7695 79.8686 90.2803 72.5967C48.0242 70.2446 16.1309 59.6214 16.1309 46.8691C16.1309 45.2361 16.6545 43.6383 17.6553 42.0879C6.65895 39.6467 0.00061616 36.4577 0 32.9678C0 27.6267 15.5933 22.9893 38.4658 20.6611C38.4658 20.6589 38.4658 20.6566 38.4658 20.6543C38.4658 9.24731 74.576 3.00969e-05 119.12 0Z" fill="#D9D9D9"/>
</svg>
