<svg width="1920" height="2256" viewBox="0 0 1920 2256" fill="none" xmlns="http://www.w3.org/2000/svg">
<path d="M1977.4 1215.2C1988.62 1240.34 1943.52 1287.2 1876.67 1319.86C1809.82 1352.52 1746.53 1358.62 1735.31 1333.48C1724.09 1308.34 1769.19 1261.48 1836.04 1228.82C1902.89 1196.16 1966.18 1190.07 1977.4 1215.2Z" fill="#9ED0EB"/>
<path d="M1784.14 1260.12C1797.46 1268.73 1808.38 1281.23 1815.08 1296.98C1821.15 1311.26 1823.01 1326.44 1821.21 1341.17C1778.07 1353.17 1743.81 1351.07 1735.84 1333.21C1727.92 1315.46 1748.07 1286.88 1784.14 1260.12Z" fill="#63AECE"/>
<ellipse cx="1769.82" cy="1299.94" rx="5.15997" ry="5.39905" fill="#5D5252"/>
<path d="M332.043 1963.73L305.991 1917L292.814 1975.15L332.043 1963.73Z" fill="#64ADCE"/>
<path d="M319.924 1957.2C312.824 1977.73 341.367 2016.01 383.677 2042.69C425.988 2069.37 466.043 2074.35 473.143 2053.82C480.244 2033.28 451.701 1995 409.39 1968.32C367.08 1941.64 327.025 1936.66 319.924 1957.2Z" fill="#9ED0EB"/>
<path d="M442.24 1993.89C433.808 2000.92 426.898 2011.13 422.659 2024C418.816 2035.66 417.641 2048.06 418.778 2060.09C446.085 2069.89 467.767 2068.19 472.812 2053.6C477.826 2039.1 465.067 2015.75 442.24 1993.89Z" fill="#63AECE"/>
<ellipse cx="3.2658" cy="4.41049" rx="3.2658" ry="4.41049" transform="matrix(-1 0 0 1 454.567 2022)" fill="#5D5252"/>
<path d="M-24.0759 800.195C-31.1764 820.732 -2.63312 859.009 39.6773 885.69C81.9876 912.371 122.043 917.352 129.143 896.815C136.244 876.279 107.701 838.001 65.3903 811.321C23.0799 784.64 -16.9755 779.659 -24.0759 800.195Z" fill="#9ED0EB"/>
<path d="M98.2396 836.887C89.8077 843.917 82.8978 854.133 78.6585 866.998C74.8159 878.659 73.6411 891.065 74.7777 903.09C102.085 912.894 123.767 911.188 128.812 896.597C133.826 882.096 121.067 858.75 98.2396 836.887Z" fill="#63AECE"/>
<ellipse cx="3.2658" cy="4.41049" rx="3.2658" ry="4.41049" transform="matrix(-1 0 0 1 110.567 865.003)" fill="#5D5252"/>
<path d="M1176.53 2185.78L1193.21 2160L1201.64 2192.08L1176.53 2185.78Z" fill="#64ADCE"/>
<path d="M1184.29 2182.18C1188.83 2193.51 1170.57 2214.63 1143.49 2229.35C1116.41 2244.07 1090.77 2246.81 1086.23 2235.48C1081.68 2224.15 1099.95 2203.04 1127.03 2188.31C1154.11 2173.59 1179.74 2170.85 1184.29 2182.18Z" fill="#9ED0EB"/>
<path d="M1106.01 2202.42C1111.4 2206.3 1115.83 2211.94 1118.54 2219.03C1121 2225.47 1121.75 2232.31 1121.02 2238.95C1103.54 2244.36 1089.67 2243.41 1086.44 2235.36C1083.23 2227.36 1091.4 2214.48 1106.01 2202.42Z" fill="#63AECE"/>
<ellipse cx="1100.21" cy="2220.37" rx="2.09011" ry="2.43338" fill="#5D5252"/>
<path d="M1483.82 304.809L1459.59 275L1447.34 312.098L1483.82 304.809Z" fill="#64ADCE"/>
<path d="M1472.55 300.642C1465.95 313.743 1492.49 338.161 1531.84 355.182C1571.19 372.202 1608.44 375.38 1615.04 362.279C1621.65 349.178 1595.1 324.76 1555.75 307.739C1516.4 290.719 1479.15 287.541 1472.55 300.642Z" fill="#9ED0EB"/>
<path d="M1586.3 324.049C1578.46 328.535 1572.04 335.05 1568.09 343.257C1564.52 350.697 1563.43 358.611 1564.48 366.282C1589.88 372.536 1610.04 371.448 1614.73 362.139C1619.4 352.889 1607.53 337.996 1586.3 324.049Z" fill="#63AECE"/>
<ellipse cx="3.0372" cy="2.81359" rx="3.0372" ry="2.81359" transform="matrix(-1 0 0 1 1597.77 341.985)" fill="#5D5252"/>
<path d="M208.007 29.8093L227.807 -4.94384e-06L237.822 37.0978L208.007 29.8093Z" fill="#64ADCE"/>
<path d="M217.218 25.642C222.614 38.7429 200.921 63.1612 168.765 80.1817C136.609 97.2022 106.167 100.38 100.771 87.2787C95.3746 74.1778 117.067 49.7595 149.223 32.739C181.379 15.7185 211.821 12.5411 217.218 25.642Z" fill="#9ED0EB"/>
<path d="M124.257 49.0494C130.665 53.5346 135.917 60.0503 139.139 68.2574C142.06 75.6967 142.952 83.6107 142.088 91.2819C121.335 97.5355 104.857 96.4476 101.023 87.1393C97.2129 77.8889 106.909 62.9963 124.257 49.0494Z" fill="#63AECE"/>
<ellipse cx="117.371" cy="69.7985" rx="2.48201" ry="2.81359" fill="#5D5252"/>
</svg>
