<svg width="1920" height="2259" viewBox="0 0 1920 2259" fill="none" xmlns="http://www.w3.org/2000/svg">
<ellipse cx="762" cy="76" rx="20" ry="17" fill="#D9D9D9"/>
<ellipse cx="710.5" cy="62" rx="10.5" ry="10" fill="#D9D9D9"/>
<path d="M1463.22 92.1637C1519.75 213.445 1251.7 232.967 1188.67 270C897.504 243.178 790.444 154.704 822.462 67.0624C949.532 -39.2701 1011.01 12.6972 1188.67 12.6972C1350.76 45.0021 1441.61 -37.6892 1463.22 92.1637Z" fill="#DBDBDA"/>
<path d="M1130.5 688C1187 830.534 833.5 800 741 822.5C450 790.977 365.5 791 397.5 688C524.5 563.034 610.62 566.544 788.179 566.544C950.179 604.51 1108.9 535.392 1130.5 688Z" fill="#DBDBDA"/>
<path d="M1427.98 1324.5C1491.43 1485.31 1042.72 1407.9 971.979 1457C645.201 1421.44 698.002 1345.92 733.936 1229.72C876.551 1088.73 1007.05 1185.22 1206.44 1185.22C1413.94 1202 1403.73 1152.32 1427.98 1324.5Z" fill="#DBDBDA"/>
<path d="M1124.5 1908.82C1187.95 2069.63 771.5 1932.57 672 1932.57C423 1975.57 423 1908.82 452.5 1798.57C595.114 1657.58 580.5 1718.08 824.5 1760.08C883.5 1781.57 1100.25 1736.64 1124.5 1908.82Z" fill="#DBDBDA"/>
<path d="M1167.89 1725.34C1167.13 1732.26 1160.8 1737.25 1153.76 1736.48C1146.71 1735.71 1141.62 1729.47 1142.37 1722.54C1143.13 1715.61 1149.46 1710.63 1156.51 1711.4C1163.55 1712.17 1168.65 1718.41 1167.89 1725.34Z" fill="#D9D9D9"/>
<path d="M1133.2 1759.95C1131.98 1771.02 1121.01 1778.9 1108.68 1777.55C1096.35 1776.2 1087.34 1766.13 1088.55 1755.05C1089.76 1743.98 1100.74 1736.1 1113.07 1737.45C1125.4 1738.8 1134.41 1748.87 1133.2 1759.95Z" fill="#D9D9D9"/>
<ellipse cx="721" cy="1103.25" rx="13.5099" ry="13.7725" transform="rotate(-2.07605 721 1103.25)" fill="#D9D9D9"/>
<ellipse cx="756" cy="1141.97" rx="20.1707" ry="23.2566" transform="rotate(-2.07605 756 1141.97)" fill="#D9D9D9"/>
<ellipse cx="1230.5" cy="611" rx="7.5" ry="8" fill="#D9D9D9"/>
<ellipse cx="1177.41" cy="624.791" rx="21" ry="17.5" transform="rotate(-13.0541 1177.41 624.791)" fill="#D9D9D9"/>
<path opacity="0.3" d="M1361.71 957C1360.01 958.511 1356.99 961.147 1353.01 966.731C1352.16 967.921 1351.87 968.725 1352.05 968.924C1353.93 970.978 1358.65 964.589 1362.27 961.743C1363.67 960.639 1365.11 960.034 1365.87 959.84C1369.13 959.009 1360.21 967.396 1357.18 970.716C1355.59 972.447 1353.95 975.161 1353.19 977.343C1351.7 981.599 1361.31 971.406 1368.97 964.601C1373.58 960.505 1375.91 958.897 1376.76 958.704C1377.71 958.489 1374.8 963.783 1369.42 971.051C1358.86 985.329 1355.65 986.154 1355.55 986.915C1355.37 988.323 1364.67 980.53 1375.93 972.77C1381.58 968.874 1385.92 966.487 1389.9 964.115C1391.13 963.377 1391.25 964.555 1390.59 965.882C1387.44 972.251 1383.31 975.349 1381.13 977.632C1380.61 978.169 1380.27 978.95 1381.02 978.024C1383.78 974.586 1389.32 968.77 1396.59 963.289C1400.03 960.694 1403.3 958.931 1404.85 958.247C1406.4 957.562 1406.21 958.125 1405.74 959.164C1402.22 966.919 1394.86 974.031 1392.11 978.189C1390.21 981.068 1388.6 983.126 1388.97 983.041C1399.72 980.56 1406.01 969.503 1407.62 969.026C1411.1 967.995 1403.19 977.814 1400.72 983.026C1404.26 980.53 1407.9 977.081 1408.76 975.849C1408.86 975.553 1408.3 975.928 1407.15 976.883" stroke="#89A8B2" stroke-width="5" stroke-linecap="round"/>
<path opacity="0.3" d="M536.709 1474C535.01 1475.51 531.994 1478.15 528.012 1483.73C527.163 1484.92 526.87 1485.73 527.052 1485.92C528.929 1487.98 533.653 1481.59 537.266 1478.74C538.667 1477.64 540.112 1477.03 540.87 1476.84C544.133 1476.01 535.209 1484.4 532.176 1487.72C530.594 1489.45 528.955 1492.16 528.191 1494.34C526.7 1498.6 536.311 1488.41 543.969 1481.6C548.578 1477.5 550.905 1475.9 551.757 1475.7C552.709 1475.49 549.797 1480.78 544.42 1488.05C533.859 1502.33 530.653 1503.15 530.554 1503.91C530.37 1505.32 539.669 1497.53 550.928 1489.77C556.58 1485.87 560.92 1483.49 564.897 1481.12C566.134 1480.38 566.249 1481.56 565.593 1482.88C562.442 1489.25 558.307 1492.35 556.126 1494.63C555.613 1495.17 555.274 1495.95 556.018 1495.02C558.781 1491.59 564.317 1485.77 571.591 1480.29C575.035 1477.69 578.303 1475.93 579.851 1475.25C581.399 1474.56 581.212 1475.12 580.74 1476.16C577.223 1483.92 569.862 1491.03 567.112 1495.19C565.209 1498.07 563.601 1500.13 563.971 1500.04C574.719 1497.56 581.007 1486.5 582.618 1486.03C586.097 1485 578.19 1494.81 575.716 1500.03C579.258 1497.53 582.905 1494.08 583.76 1492.85C583.865 1492.55 583.302 1492.93 582.155 1493.88" stroke="#89A8B2" stroke-width="5" stroke-linecap="round"/>
<path opacity="0.3" d="M1261.71 2043C1260.01 2044.51 1256.99 2047.15 1253.01 2052.73C1252.16 2053.92 1251.87 2054.73 1252.05 2054.92C1253.93 2056.98 1258.65 2050.59 1262.27 2047.74C1263.67 2046.64 1265.11 2046.03 1265.87 2045.84C1269.13 2045.01 1260.21 2053.4 1257.18 2056.72C1255.59 2058.45 1253.95 2061.16 1253.19 2063.34C1251.7 2067.6 1261.31 2057.41 1268.97 2050.6C1273.58 2046.5 1275.91 2044.9 1276.76 2044.7C1277.71 2044.49 1274.8 2049.78 1269.42 2057.05C1258.86 2071.33 1255.65 2072.15 1255.55 2072.91C1255.37 2074.32 1264.67 2066.53 1275.93 2058.77C1281.58 2054.87 1285.92 2052.49 1289.9 2050.12C1291.13 2049.38 1291.25 2050.56 1290.59 2051.88C1287.44 2058.25 1283.31 2061.35 1281.13 2063.63C1280.61 2064.17 1280.27 2064.95 1281.02 2064.02C1283.78 2060.59 1289.32 2054.77 1296.59 2049.29C1300.03 2046.69 1303.3 2044.93 1304.85 2044.25C1306.4 2043.56 1306.21 2044.12 1305.74 2045.16C1302.22 2052.92 1294.86 2060.03 1292.11 2064.19C1290.21 2067.07 1288.6 2069.13 1288.97 2069.04C1299.72 2066.56 1306.01 2055.5 1307.62 2055.03C1311.1 2054 1303.19 2063.81 1300.72 2069.03C1304.26 2066.53 1307.9 2063.08 1308.76 2061.85C1308.86 2061.55 1308.3 2061.93 1307.15 2062.88" stroke="#899CB2" stroke-width="5" stroke-linecap="round"/>
<path d="M1977.4 1218.2C1988.62 1243.34 1943.52 1290.2 1876.67 1322.86C1809.82 1355.52 1746.53 1361.62 1735.31 1336.48C1724.09 1311.34 1769.19 1264.48 1836.04 1231.82C1902.89 1199.16 1966.18 1193.07 1977.4 1218.2Z" fill="#9ED0EB"/>
<path d="M1784.14 1263.12C1797.46 1271.73 1808.38 1284.23 1815.08 1299.98C1821.15 1314.26 1823.01 1329.44 1821.21 1344.17C1778.07 1356.17 1743.81 1354.07 1735.84 1336.21C1727.92 1318.46 1748.07 1289.88 1784.14 1263.12Z" fill="#63AECE"/>
<ellipse cx="1769.82" cy="1302.94" rx="5.15997" ry="5.39905" fill="#5D5252"/>
<path d="M332.043 1966.73L305.991 1920L292.814 1978.15L332.043 1966.73Z" fill="#64ADCE"/>
<path d="M319.924 1960.2C312.824 1980.73 341.367 2019.01 383.677 2045.69C425.988 2072.37 466.043 2077.35 473.143 2056.82C480.244 2036.28 451.701 1998 409.39 1971.32C367.08 1944.64 327.025 1939.66 319.924 1960.2Z" fill="#9ED0EB"/>
<path d="M442.24 1996.89C433.808 2003.92 426.898 2014.13 422.659 2027C418.816 2038.66 417.641 2051.06 418.778 2063.09C446.085 2072.89 467.767 2071.19 472.812 2056.6C477.826 2042.1 465.067 2018.75 442.24 1996.89Z" fill="#63AECE"/>
<ellipse cx="3.2658" cy="4.41049" rx="3.2658" ry="4.41049" transform="matrix(-1 0 0 1 454.567 2025)" fill="#5D5252"/>
<path d="M-24.0759 803.196C-31.1764 823.732 -2.63312 862.01 39.6773 888.69C81.9876 915.371 122.043 920.352 129.143 899.815C136.244 879.279 107.701 841.002 65.3903 814.321C23.0799 787.64 -16.9755 782.659 -24.0759 803.196Z" fill="#9ED0EB"/>
<path d="M98.2396 839.887C89.8077 846.918 82.8978 857.133 78.6585 869.998C74.8159 881.659 73.6411 894.065 74.7777 906.09C102.085 915.894 123.767 914.188 128.812 899.597C133.826 885.096 121.067 861.75 98.2396 839.887Z" fill="#63AECE"/>
<ellipse cx="3.2658" cy="4.41049" rx="3.2658" ry="4.41049" transform="matrix(-1 0 0 1 110.567 868.003)" fill="#5D5252"/>
<path d="M1176.53 2188.78L1193.21 2163L1201.64 2195.08L1176.53 2188.78Z" fill="#64ADCE"/>
<path d="M1184.29 2185.18C1188.83 2196.51 1170.57 2217.63 1143.49 2232.35C1116.41 2247.07 1090.77 2249.82 1086.23 2238.48C1081.68 2227.15 1099.95 2206.04 1127.03 2191.32C1154.11 2176.59 1179.74 2173.85 1184.29 2185.18Z" fill="#9ED0EB"/>
<path d="M1106.01 2205.42C1111.4 2209.3 1115.83 2214.94 1118.54 2222.03C1121 2228.47 1121.75 2235.31 1121.02 2241.95C1103.54 2247.36 1089.67 2246.41 1086.44 2238.36C1083.23 2230.36 1091.4 2217.48 1106.01 2205.42Z" fill="#63AECE"/>
<ellipse cx="1100.21" cy="2223.37" rx="2.09011" ry="2.43338" fill="#5D5252"/>
<path d="M1483.82 307.809L1459.59 278L1447.34 315.098L1483.82 307.809Z" fill="#64ADCE"/>
<path d="M1472.55 303.642C1465.95 316.743 1492.49 341.161 1531.84 358.182C1571.19 375.202 1608.44 378.38 1615.04 365.279C1621.65 352.178 1595.1 327.76 1555.75 310.739C1516.4 293.719 1479.15 290.541 1472.55 303.642Z" fill="#9ED0EB"/>
<path d="M1586.3 327.049C1578.46 331.534 1572.04 338.05 1568.09 346.257C1564.52 353.697 1563.43 361.611 1564.48 369.282C1589.88 375.536 1610.04 374.447 1614.73 365.139C1619.4 355.889 1607.53 340.996 1586.3 327.049Z" fill="#63AECE"/>
<ellipse cx="3.0372" cy="2.81359" rx="3.0372" ry="2.81359" transform="matrix(-1 0 0 1 1597.77 344.985)" fill="#5D5252"/>
<path d="M208.007 32.8093L227.807 3L237.822 40.0978L208.007 32.8093Z" fill="#64ADCE"/>
<path d="M217.218 28.642C222.614 41.7429 200.921 66.1612 168.765 83.1817C136.609 100.202 106.167 103.38 100.771 90.2787C95.3746 77.1778 117.067 52.7595 149.223 35.739C181.379 18.7185 211.821 15.5411 217.218 28.642Z" fill="#9ED0EB"/>
<path d="M124.257 52.0493C130.665 56.5345 135.917 63.0502 139.139 71.2573C142.06 78.6966 142.952 86.6105 142.088 94.2817C121.335 100.535 104.857 99.4475 101.023 90.1392C97.2129 80.8888 106.909 65.9962 124.257 52.0493Z" fill="#63AECE"/>
<ellipse cx="117.371" cy="72.7985" rx="2.48201" ry="2.81359" fill="#5D5252"/>
</svg>
