<svg width="474" height="304" viewBox="0 0 474 304" fill="none" xmlns="http://www.w3.org/2000/svg">
<path d="M364.879 81.64L426.621 -2.79102e-05L457.851 101.601L364.879 81.64Z" fill="#64ADCE"/>
<path d="M393.6 70.2267C410.428 106.107 342.781 172.982 242.505 219.597C142.229 266.211 47.2981 274.914 30.47 239.034C13.6419 203.154 81.2895 136.278 181.565 89.6636C281.841 43.0488 376.772 34.3466 393.6 70.2267Z" fill="#9ED0EB"/>
<path d="M103.71 134.331C123.694 146.614 140.072 164.462 150.119 186.939C159.227 207.315 162.013 228.992 159.318 250.003C94.6 267.131 43.2138 264.145 31.2571 238.651C19.3748 213.316 49.6101 172.528 103.71 134.331Z" fill="#63AECE"/>
<ellipse cx="82.237" cy="191.16" rx="7.73995" ry="7.70569" fill="#5D5252"/>
</svg>
