<svg width="1920" height="2259" viewBox="0 0 1920 2259" fill="none" xmlns="http://www.w3.org/2000/svg">
<ellipse cx="762" cy="76" rx="20" ry="17" fill="#D9D9D9"/>
<ellipse cx="710.5" cy="62" rx="10.5" ry="10" fill="#D9D9D9"/>
<path d="M1463.22 92.1637C1519.75 213.445 1251.7 232.967 1188.67 270C897.504 243.178 790.444 154.704 822.462 67.0624C949.532 -39.2701 1011.01 12.6972 1188.67 12.6972C1350.76 45.0021 1441.61 -37.6892 1463.22 92.1637Z" fill="#DBDBDA"/>
<path d="M1130.5 688C1187 830.534 833.5 800 741 822.5C450 790.977 365.5 791 397.5 688C524.5 563.034 610.62 566.544 788.179 566.544C950.179 604.51 1108.9 535.392 1130.5 688Z" fill="#DBDBDA"/>
<path d="M1427.98 1324.5C1491.43 1485.31 1042.72 1407.9 971.979 1457C645.201 1421.44 698.002 1345.92 733.936 1229.72C876.551 1088.73 1007.05 1185.22 1206.44 1185.22C1413.94 1202 1403.73 1152.32 1427.98 1324.5Z" fill="#DBDBDA"/>
<path d="M1124.5 1908.82C1187.95 2069.63 771.5 1932.57 672 1932.57C423 1975.57 423 1908.82 452.5 1798.57C595.114 1657.58 580.5 1718.08 824.5 1760.08C883.5 1781.57 1100.25 1736.64 1124.5 1908.82Z" fill="#DBDBDA"/>
<path d="M1167.89 1725.34C1167.13 1732.26 1160.8 1737.25 1153.76 1736.48C1146.71 1735.71 1141.62 1729.47 1142.37 1722.54C1143.13 1715.61 1149.46 1710.63 1156.51 1711.4C1163.55 1712.17 1168.65 1718.41 1167.89 1725.34Z" fill="#D9D9D9"/>
<path d="M1133.2 1759.95C1131.98 1771.02 1121.01 1778.9 1108.68 1777.55C1096.35 1776.2 1087.34 1766.13 1088.55 1755.05C1089.76 1743.98 1100.74 1736.1 1113.07 1737.45C1125.4 1738.8 1134.41 1748.87 1133.2 1759.95Z" fill="#D9D9D9"/>
<ellipse cx="721" cy="1103.25" rx="13.5099" ry="13.7725" transform="rotate(-2.07605 721 1103.25)" fill="#D9D9D9"/>
<ellipse cx="756" cy="1141.97" rx="20.1707" ry="23.2566" transform="rotate(-2.07605 756 1141.97)" fill="#D9D9D9"/>
<ellipse cx="1230.5" cy="611" rx="7.5" ry="8" fill="#D9D9D9"/>
<ellipse cx="1177.41" cy="624.791" rx="21" ry="17.5" transform="rotate(-13.0541 1177.41 624.791)" fill="#D9D9D9"/>
<path d="M1977.4 1218.2C1988.62 1243.34 1943.52 1290.2 1876.67 1322.86C1809.82 1355.52 1746.53 1361.62 1735.31 1336.48C1724.09 1311.34 1769.19 1264.48 1836.04 1231.82C1902.89 1199.16 1966.18 1193.07 1977.4 1218.2Z" fill="#9ED0EB"/>
<path d="M1784.14 1263.12C1797.46 1271.73 1808.38 1284.23 1815.08 1299.98C1821.15 1314.26 1823.01 1329.44 1821.21 1344.17C1778.07 1356.17 1743.81 1354.07 1735.84 1336.21C1727.92 1318.46 1748.07 1289.88 1784.14 1263.12Z" fill="#63AECE"/>
<ellipse cx="1769.82" cy="1302.94" rx="5.15997" ry="5.39905" fill="#5D5252"/>
<path d="M332.043 1966.73L305.991 1920L292.814 1978.15L332.043 1966.73Z" fill="#64ADCE"/>
<path d="M319.924 1960.2C312.824 1980.73 341.367 2019.01 383.677 2045.69C425.988 2072.37 466.043 2077.35 473.143 2056.82C480.244 2036.28 451.701 1998 409.39 1971.32C367.08 1944.64 327.025 1939.66 319.924 1960.2Z" fill="#9ED0EB"/>
<path d="M442.24 1996.89C433.808 2003.92 426.898 2014.13 422.659 2027C418.816 2038.66 417.641 2051.06 418.778 2063.09C446.085 2072.89 467.767 2071.19 472.812 2056.6C477.826 2042.1 465.067 2018.75 442.24 1996.89Z" fill="#63AECE"/>
<ellipse cx="3.2658" cy="4.41049" rx="3.2658" ry="4.41049" transform="matrix(-1 0 0 1 454.567 2025)" fill="#5D5252"/>
<path d="M-24.0759 803.195C-31.1764 823.732 -2.63312 862.009 39.6773 888.69C81.9876 915.371 122.043 920.352 129.143 899.815C136.244 879.279 107.701 841.001 65.3903 814.321C23.0799 787.64 -16.9755 782.659 -24.0759 803.195Z" fill="#9ED0EB"/>
<path d="M98.2396 839.887C89.8077 846.917 82.8978 857.133 78.6585 869.998C74.8159 881.659 73.6411 894.065 74.7777 906.09C102.085 915.894 123.767 914.188 128.812 899.597C133.826 885.096 121.067 861.75 98.2396 839.887Z" fill="#63AECE"/>
<ellipse cx="3.2658" cy="4.41049" rx="3.2658" ry="4.41049" transform="matrix(-1 0 0 1 110.567 868.003)" fill="#5D5252"/>
<path d="M1176.53 2188.78L1193.21 2163L1201.64 2195.08L1176.53 2188.78Z" fill="#64ADCE"/>
<path d="M1184.29 2185.18C1188.83 2196.51 1170.57 2217.63 1143.49 2232.35C1116.41 2247.07 1090.77 2249.81 1086.23 2238.48C1081.68 2227.15 1099.95 2206.04 1127.03 2191.31C1154.11 2176.59 1179.74 2173.85 1184.29 2185.18Z" fill="#9ED0EB"/>
<path d="M1106.01 2205.42C1111.4 2209.3 1115.83 2214.94 1118.54 2222.03C1121 2228.47 1121.75 2235.31 1121.02 2241.95C1103.54 2247.36 1089.67 2246.41 1086.44 2238.36C1083.23 2230.36 1091.4 2217.48 1106.01 2205.42Z" fill="#63AECE"/>
<ellipse cx="1100.21" cy="2223.37" rx="2.09011" ry="2.43338" fill="#5D5252"/>
<path d="M1483.82 307.809L1459.59 278L1447.34 315.098L1483.82 307.809Z" fill="#64ADCE"/>
<path d="M1472.55 303.642C1465.95 316.743 1492.49 341.161 1531.84 358.182C1571.19 375.202 1608.44 378.38 1615.04 365.279C1621.65 352.178 1595.1 327.76 1555.75 310.739C1516.4 293.719 1479.15 290.541 1472.55 303.642Z" fill="#9ED0EB"/>
<path d="M1586.3 327.049C1578.46 331.535 1572.04 338.05 1568.09 346.257C1564.52 353.697 1563.43 361.611 1564.48 369.282C1589.88 375.536 1610.04 374.448 1614.73 365.139C1619.4 355.889 1607.53 340.996 1586.3 327.049Z" fill="#63AECE"/>
<ellipse cx="3.0372" cy="2.81359" rx="3.0372" ry="2.81359" transform="matrix(-1 0 0 1 1597.77 344.985)" fill="#5D5252"/>
<path d="M208.007 32.8093L227.807 3L237.822 40.0978L208.007 32.8093Z" fill="#64ADCE"/>
<path d="M217.218 28.642C222.614 41.7429 200.921 66.1612 168.765 83.1817C136.609 100.202 106.167 103.38 100.771 90.2787C95.3746 77.1778 117.067 52.7595 149.223 35.739C181.379 18.7185 211.821 15.5411 217.218 28.642Z" fill="#9ED0EB"/>
<path d="M124.257 52.0494C130.665 56.5346 135.917 63.0503 139.139 71.2574C142.06 78.6967 142.952 86.6107 142.088 94.2819C121.335 100.536 104.857 99.4476 101.023 90.1393C97.2129 80.8889 106.909 65.9963 124.257 52.0494Z" fill="#63AECE"/>
<ellipse cx="117.371" cy="72.7985" rx="2.48201" ry="2.81359" fill="#5D5252"/>
</svg>
